<svg id="bat" data-name="Layer 1" xmlns="http://www.w3.org/2000/svg" viewBox="0 0 580.72 600.46"><defs><style>.cls-1{fill:none;stroke:url(#gradient);stroke-miterlimit:10;stroke-width:3;}</style>
    <linearGradient id="gradient" x1="0%" y1="0%" x2="0%" y2="100%">
  <stop offset="0%" stop-color="yellow" />
  <stop offset="60%" stop-color="green" />
  <stop offset="100%" stop-color="magenta" />
</linearGradient>
</defs><path class="cls-1" d="M955.33,452.67s-4.33,6-3.66,10c0,0-3.67-6.67-2.67-10,0,0-7.86,1.66-7.1,6.66,0,0-3.23-4.33-1.57-9,0,0-8.66,1.34-8.33,3.34,0,0-2-5.67,0-7.34,0,0-5.66.67-5.66,2.67,0,0-1.33-6.33,0-7s-5.33,4.67-5.33,8.33c0,0-3.67-3-3-5.66,0,0-10.33,3.66-9,11,0,0-3.67-8.78,2.33-13.73,0,0-21.66,2.95-24.66,0,0,0,3-10.61,16.66-10.61,0,0-18.33-5-18.33-7.33,0,0,4.33-6.33,12-4.67,0,0-3.33-6.66-2.33-8,0,0,6,.67,8,0,0,0-3.67-4-8.34-3S868,402,868,398s-12-17.67-15.67-16.33c0,0,3.95-1.61,11.78,5,0,0-11.55-10.11-16.44-33.67,0,0,3.33,1.11,4.22,3.33,0,0-2.67-18.44-5.56-22.89a12.66,12.66,0,0,1-1.77-9.11s1.77,5.34,4,6.89c0,0,1.11-15.11-1.78-17.11s-2.43-6-2.43-6,7.09,4,4-2.22-2.47-26.45-4-29.11c0,0,3.12,1.78,2.9-5.34s8.22-23.77,15.34-25.77S878.33,247,878.33,247s32.23,15.11,56,56,18.45,62.89,18.45,62.89,7.72,3.33,8.6,26.07c0,0,4-23.35,15.79-25.13,0,0-14.39-100.5,87.83-131.39,0,0,7.78-5.77,7.78,15.34s.44,74.44-8.67,92.44c0,0,.72,2.95,3.39,1.61,0,0-3.5,14.5-6.33,17.67s-.67,5,.83,4.5c0,0-12,28-32.17,38.67,0,0-3.83,4.16,3,4.16,0,0-13.33,3.34-17.66,12,0,0-2.34,3.5,5.5,5,0,0-4.17,8.67-9.5,9.84,0,0,3.16,1.66,3.33,3,0,0-3.67,1.66-5.83,1.16s-9.84.5-12.5-3.16c0,0,2.5,8,1.16,10.16,0,0-5.5-8.83-8-7.83,0,0,4.34,11.17,4.5,13s-9.16-8.33-12.33-8.33-2.17,9-2.17,9-1.16-6.5-3-6.34c0,0,1.67,11.34-.16,12.34,0,0-2.34-9.84-4.84-11.17s-2,10.17-2,10.17-5.5-25-6.16,5.83C963.17,464.5,959.83,447.17,955.33,452.67Z" transform="translate(-651.65 -234.22)"/><path class="cls-1" d="M958.55,399s3,13-7.38,15.67c0,0-5-.67-.67-7.84S957.43,397.33,958.55,399Z" transform="translate(-651.65 -234.22)"/><path class="cls-1" d="M964.17,399.33s.16,15.67,5.16,13.17,6.84-2.56,4.5-6.45S965.33,397.17,964.17,399.33Z" transform="translate(-651.65 -234.22)"/><path class="cls-1" d="M958.94,394.33s-7.27,0-12.94,12.25a10.88,10.88,0,0,0-1.17,4.09s-2.5-5.42-3.83-4.88c0,0,0,3.88-1.33,3.21s-2.67-1.59-1.67-3.21c0,0-4.5.21-1.83,4.88s5.73.83,5.73.83,3.93,3.67,3.93,5.17,2,6,13.11,5.66,18.39-.33,18.89-7.66c0,0,1.5-3.34,3-2.67s9.5.52,8-3.66-3.83-3.67-3.83-3.67,1.33,3-.83,3.67-3.5-2.51-2.17-3.51c0,0-3.33,0-3.83,1.75,0,0-8.72-10.3-12.13-11.75C963.29,393.67,958.94,394.33,958.94,394.33Z" transform="translate(-651.65 -234.22)"/><path class="cls-1" d="M992,389.33s3-5.66,5.67-6c0,0-3,5.34-2.84,9,0,0,3.5-4.66,6.17-4.5,0,0-5.67,9.14-4.5,10.66,0,0,4.83-5.2,6.83-4.35,0,0-5.33,4.86-3.66,8.53a4.18,4.18,0,0,1,3.66-2.67s-3.66,5.25,0,5.79,14.34-7.3,14.34-7.3S1034,363,1031.33,326.33c0,0-5.37-15.66-19.52,13.34S992,383,992,389.33Z" transform="translate(-651.65 -234.22)"/><path class="cls-1" d="M935.3,383.23s-2.8-5.88-5.62-6.41c0,0,2.82,5.54,2.39,9.19,0,0-3.4-4.92-6.25-4.95,0,0,5.4,9.54,4,11,0,0-4.78-5.54-7-4.84,0,0,5.34,5.24,3.31,8.78a4.4,4.4,0,0,0-3.72-2.93s3.54,5.5-.4,5.77-14.75-8.34-14.75-8.34-14.92-36.62-9.54-73c0,0,6.81-15.23,19.85,14.75S935.74,376.91,935.3,383.23Z" transform="translate(-651.65 -234.22)"/><path class="cls-1" d="M905,445.33S835.67,490,826,489c0,0-49.67-19-56-28s-111.67-58.67-111.67-58.67,134,94,165.34,103.34c0,0,8.33,3.33,11.33,0S860,495,860,495l25.33-17S870.67,506.67,871,515c0,0,9-15.67,12.67-17,0,0-6.67,30.33-6.34,38.33,0,0,4.67-15,7.34-15.33,0,0-3.67,19.33-3.67,23s5-10,7-10.33c0,0-7.33,19.66-6.67,25,0,0,5.34-13.67,8-13.67,0,0-2,27.33-7,36.33,0,0,10.67-16,10-19.66,0,0-3.33,26.66-5.66,27.33,0,0,7.33-11.67,8-15.33,0,0,.33,18.33-1.67,20.66,0,0-25.67,24-25.67,28.67s-10.33,52-6.66,62c0,0-23,17-21.34,21s12.34-.67,14.34,0,8,10.67,12,10.67,3.66-5.67,2-20.67,5.33-52.33,8-54,26.33-38,31-38.67a11.64,11.64,0,0,0,7.33-4.66s-6,13-2,18.33c0,0,1.28-13.67,4-14,0,0-1.31,20.33,2,25.67,0,0,3.67-17,5.67-18,0,0,2.66,9.33,5.33,13.33,0,0,7-36.33,8-.67s11,81.34,11,81.34,11.67-77.34,10.67-83.67,7.66-19.67,10.33,4c0,0,8-17.33,8-22s3.67-12,7,7.67c0,0,5-11,6.33,8.33,0,0-1.33-43.67,6.67-18.33s30,42,30,42,1,49.66,2.67,53.66c0,0-1.34,39.34,7.66,27s22.67-6,22.67-6,12.33-1.33-17.33-16.66c0,0-10.67-30.67-7.34-57.34S1007.67,590,1007.67,590l1.33-24s6.4,13.92,5.33,21.67c0,0,5.34-20,2.67-26,0,0,7,1,7.33,9,0,0-2.33-30.67-4.33-35s2.67-14,6.67,6.33c0,0,1.33-22-3.34-38.67s9.26,10.34,8.3,13,1.37-26-5.3-34c0,0,35.67,25.34,42.34,32.67s18.66-13,18.66-13,101-85.67,137.67-91.67c0,0-113.17,47.67-155.67,85.34,0,0-44.66-31-53.66-34.34s-15.34-14-15.34-14" transform="translate(-651.65 -234.22)"/><path class="cls-1" d="M870,678.33s65-65.66,74.33,53.34c0,0-1,83.66,6.67,101,0,0,5.33,22,4.67-101.67,0,0,1-107.33,69-59.33" transform="translate(-651.65 -234.22)"/><path class="cls-1" d="M1013.33,444s22.67,12,25,16.67S1081,463,1081,463s24.67-13,36-11.67,94-50.66,115.33-49" transform="translate(-651.65 -234.22)"/><path class="cls-1" d="M894,446.33S857.67,454,841,459s-74.33-23.67-77-23.67S659,394,651.67,394.14" transform="translate(-651.65 -234.22)"/></svg>