<svg id="dino" data-name="Layer 1" xmlns="http://www.w3.org/2000/svg" viewBox="0 0 995.26 418.46"><defs><style>.cls-1{fill:none;stroke:url(#gradient);stroke-miterlimit:10;stroke-width:3;}</style>
    <linearGradient id="gradient" x1="0%" y1="0%" x2="0%" y2="100%">
  <stop offset="0%" stop-color="#00bc9b" />
  <stop offset="100%" stop-color="#5eaefd" />
</linearGradient></defs><path class="cls-1" d="M6859.17,7200.83s9.83,33.28,0,47.56-35.11,43.11-33.34,48.89-17.33,14.22-24,3.55-57.77-55.55-23.55-113.33c0,0,18.66-16,28-10.22,0,0-10.22,35.55,18.22,42.66s28.89-28,28.89-36.88,11.54-.47,16.89,4.88c3.11,3.12.39,31.84,1.55,33.06s1.56-29.94,4.67-31.28,70.67,72.45,66.33,50.11c0,0,0-32.33,10-45.66,0,0,81.89-110.67,190.78-115.56s204,16.45,243.11,92,54.22,276.56,191.56,264.56l34.66-4s15.56-64.11,25.78-82.78-22.66,82.78-16.44,81.89,34.66-103.67,48-111.67-40.56,104.45-38.67,110.78c6.39,21.35,71.81-115.73,83.11-120.11,11-4.26-65.55,111.89-58.66,121.22,5.27,7.15,71.55-91,76-87.89s-43.12,86.67-68,94.67-103.56,32.89-164.89,14.66-177.11-98.88-177.11-103.77,59.55-59.67,54.88-150.45c0,0,9.34,60-59.55,147.11,0,0,13.64,87.36,12.89,94.67s-5.78,24.44-26.67,30.67-32.89,15.55-32.89,15.55-10.8,5.64-13.89,2.11,4.89-13.72.67-12.33-21.89,12.89-18.78-.44-12.44,0-12.44,0-19.11-3.56-3.56-13.78,39.11-17.78,29.34-43.11-53.89-82.33-37.89-123.34,33.44-108.22,55.22-126.89c0,0-23.22,6.89-63.56,134.23-3.51,11.1-1.43,31.24-1.43,31.24s-66.12,22.09-87,17.65c0,0-25.78-23.12-20-49.34,0,0-10.22,21.78,14.67,56.45,0,0,10.22,11.55-12.45,54.22s-28.44,62.67-28.44,62.67-24.45,21.77-56,14.66c0,0-29.34,14.67-18.67-3.11s-12,4.45-12,4.45-24.44,2.22,0-17.34,63.11-92.89,52-116.44-20-37.34-20-37.34,12.89,29.34,12.89,35.12c0,0-95.37,5.65-129.78-47.56-26.94-41.67-45.78-29-45.78-29s-27.83,29.17-22.5,15.67,19-25.78,25.17-32.89S6875.61,7237.28,6859.17,7200.83Z" transform="translate(-6737.58 -7077.45)"/><path class="cls-1" d="M6932.5,7347.17s52,14.66,57.33,14-6,28-23.33,50.66-25.33,51.34-31.33,52.67-28,8.67-36.67,6.67,0-15.34,0-15.34-3.33-4.66-20.67,8.67-10-10-4-12-11.33,1.33-24,14-18.66-8,10-22.67,33.34-27,39.34-34.49S6930.86,7357.09,6932.5,7347.17Z" transform="translate(-6737.58 -7077.45)"/><path class="cls-1" d="M7179.17,7347.17l26-7.34s28.38,62.07,37.13,81.34-14.47,29.33-14.47,29.33-23.33,10.69-20.66,21-13.34,10.32-13.34,10.32l-32.66,4.67s-27.34.67-5.34-18.67,50-35.33,50-35.33,5.87-32-10.06-50S7175.83,7358.5,7179.17,7347.17Z" transform="translate(-6737.58 -7077.45)"/><path class="cls-1" d="M6816,7202.2c12.5,33.29,49-10,27.13-27.24S6804.29,7170.92,6816,7202.2Z" transform="translate(-6737.58 -7077.45)"/><path class="cls-1" d="M6811.77,7136.81c-16.71-1.55-1.4,20,0,23.33s22.73-8.66,30.06,0S6847.7,7140.14,6811.77,7136.81Z" transform="translate(-6737.58 -7077.45)"/><path class="cls-1" d="M6751,7160.55c2.84-4.51,10.67,22,2.67,26s-9.34,17-9.34,17C6743.59,7204.71,6727.05,7198.64,6751,7160.55Z" transform="translate(-6737.58 -7077.45)"/><path class="cls-1" d="M6766.58,7195.17s-11.09,38-6.59,45.33-14.49-17.67-12.16-27.33S6756,7185.17,6766.58,7195.17Z" transform="translate(-6737.58 -7077.45)"/><path class="cls-1" d="M6826.83,7180.5c5-10.71,15.6,3.87,12.47,11.77s-6.8,12.92-9.47,11.41S6821.32,7192.34,6826.83,7180.5Z" transform="translate(-6737.58 -7077.45)"/><path class="cls-1" d="M6810.35,7277.17c7.52,20.85,8.69-45.34,7.48-26.67C6817.05,7262.52,6809.31,7274.28,6810.35,7277.17Z" transform="translate(-6737.58 -7077.45)"/><path class="cls-1" d="M6771,7259.06c-.12,3.16,5.7,19.41,5.89,19.83s11.31,9.5,10.31,8.39C6774.66,7273.39,6771,7258,6771,7259.06Z" transform="translate(-6737.58 -7077.45)"/></svg>
