<svg id="Layer_1" data-name="Layer 1" xmlns="http://www.w3.org/2000/svg" viewBox="0 0 253.09 309.48"><defs><style>.cls-1{fill:none;stroke:url(#gradient);stroke-miterlimit:10;stroke-width:3;}.cls-2{fill:url(#gradient);}</style>
    <linearGradient id="gradient" x1="0%" y1="0%" x2="0%" y2="100%">
  <stop offset="0%" stop-color="#f664f9" />
  <stop offset="60%" stop-color="#f361cf" />
  <stop offset="100%" stop-color="#f3618c" />
</linearGradient>
</defs><path class="cls-1" d="M7075.83,7215.39s19.78-3.33,20.67-4.67,6.44-30.44,39.33-32.22,58.67,28.67,58.67,28.67,10.67,8.66,17.78,6c0,0-1.78,15.55-9.78,17.55,0,0,1.78,2,4.89,0,0,0-4.45,22.45-65.78,17.34,0,0-20.67-6-29.55-5.78s-34.23-.11-37.39-5.95c0,0,22.66,3.34,26.66-4.66,0,0-26.16,7.83-32.66-2.34C7068.67,7229.33,7077.67,7222.28,7075.83,7215.39Z" transform="translate(-7058.07 -7134.7)"/><path class="cls-1" d="M7073.33,7215.42s0,10.16-6.08,11.25c0,0-13.5-8.75-6.83-10.67A29.53,29.53,0,0,1,7073.33,7215.42Z" transform="translate(-7058.07 -7134.7)"/><path class="cls-1 " d="M7114.83,7199.06s15.34-22.45,28.45,3.33c0,0-8.11-4.89-9-4,0,0,2.11,17.15-6.89,16.58,0,0-7.45,1.2-8.11-11.25,0,0,8.78,3.11,8.78-3.72s-9.07-3.94-8.56,0c0,0-1-2.1-.6-2.6C7118.9,7197.4,7115.06,7198.32,7114.83,7199.06Z" transform="translate(-7058.07 -7134.7)"/><path class="cls-1" d="M7075.75,7213.62s15.83-5.54,16.83-5.37c0,0,10.14-47.53,11.25-48.42s6.45-20,31.56-23.77,90.22,2.22,81.11,74.44c0,0-9.44,38-4.22,66s14.55,35,42.89,50,82,50,40,96.33c0,0-7.09,7.92-10.67,7.5,0,0,8.42,15.92-12.25,12.92s-74.19.38-74.19.38-32,.65-21.34-2.69c0,0-3.25-2.41,3-3.69,0,0-3.66-2.31,1.86-3.47s26.59-1.06,34.2,1.72,10.22,0,10.22,0-30.17-8.39-34.39-22.72-6.44-35.61,18.89-49.61,60.89-.89,60.89-.89-29.33-24.89-65.56-3.56c0,0-31.11-32.44-38-31.11,0,0-4,95.11-12,100.89,0,0-5.33-72.44-16.66-91.11,0,0-17.23-2.67-17.45-6.45,0,0,4,1.56,4.34.45s-6-5.78-9.89-4.89c0,0,1.33-1.89,2.77-1.89,0,0-14.11-1.55-18-9.44,0,0,3,.89,4.34-.67,0,0-13.67-17.44-10.45-27.56a15.54,15.54,0,0,0,3.78,3.89c1.89,1.11-.22-15.22,4.33-18.33,0,0,3.23,3.44,5.56-4.33,0,0,7.33.11,4.89-3.23,0,0,4.22-1.91,6.33-1.68,0,0,2-3,.11-3.76,0,0,4.78-1.89,6.78-.89,0,0,8.78-6.55,8.45-8.78,0,0,9.33,1.67,11,2,0,0-1.23,36.78-3.34,38.34,0,0,2.45-.67,2.89-2,0,0-.11,23.66-3.22,26.77,0,0,2.78.78,3.55-1.22,0,0-4.66,22.34-6.44,22.34" transform="translate(-7058.07 -7134.7)"/><path class="cls-1 " d="M7193.2,7374.94s-16.92-17.33-19.37-17.33c0,0-2.89,70-17.11,83.33,0,0-21.11,4-28.22,1.12,0,0-1.33-1.78,1.11-4.89,0,0,0-3.56,2-4a3.5,3.5,0,0,1,3.56-2.89c3.11,0,15.77-.45,17.55.66,0,0-1.55-37.33-2.89-43.33" transform="translate(-7058.07 -7134.7)"/></svg>