<svg id="moth" data-name="Layer 1" xmlns="http://www.w3.org/2000/svg" viewBox="0 0 340.23 183.37"><defs><style>.cls-1{fill:none;stroke:url(#gradient);stroke-miterlimit:10;stroke-width:2;}</style>
    <linearGradient id="gradient" x1="0%" y1="0%" x2="0%" y2="100%">
  <stop offset="0%" stop-color="#ff33f7" />
  <stop offset="40%" stop-color="#ff3399" />
  <stop offset="100%" stop-color="#ff3433" />
</linearGradient>
</defs><path class="cls-1" d="M140.58,82.22s-2.67-3.33-4.17-2.83-25.66-3.33-28.33-7.33c0,0-18.5-8.34-18.33-16.34,0,0,2.66-26.5,1-30.83s3.5-23.17,5.66-22.67-1.83,15,.67,21-.33,30-2.5,31.34c0,0,13.33,6.5,14.83,11.66,0,0,23.5,0,27.34,8,0,0,2.83,1.17,3.33.34s5.5-11.84,9.83-11.34l-.08-1.33s-8.58-4-7.5-8.92c0,0,6.33,7.5,9.25.25s-7.17-6-7.33-3.08c0,0,0-4.5,4.33-5.08,0,0-8.5-14.92-21.58-16.75s-26.59,1.08-26.59,1.08-.25-1.67-.63-4.47c0-.25,0-.48.25-.55,5.32-1.6,43.69-12,56.55,16.85,0,0,12.17-8.33,24,.17,0,0,8.33-29.67,59.5-16.17,0,0-.67,3,0,4,0,0-37.5-8.66-49.5,14.17l-.72,1.28s4.55,1.33,4.94,4.22c0,0-6.66-4.78-8.83,1.89s10,6.06,10.19,1.11c0,0,.81,7.56-4.19,9.89,0,0-.17,1.72.11,1.78s2.11-.72,6.78,9.94c0,0,20.39-9.78,28.72-6.61,0,0,12.5-14.5,16.33-13,0,0-5-19.67-1.33-29.33s-2.67-19.5-2.67-19.5-1.83-9.17,4-1.5,4.84,15.33,3.84,28.33a68.18,68.18,0,0,0,2,22.83s.83,9.34-20.34,16.67c0,0-3.16,6.5-24,9.5,0,0-4.38-.58-7.5,1.5"/><path class="cls-1 cls-2" d="M89.38,28.39s.83,2.66,0,3.66-9.5,4.67-9.5,4.67-7.67,23-17.5,27.83c0,0,14.66-21.66,14.5-26.33L73.6,39.89S64.77,60.22,56.16,66.05c0,0,14.94-21.55,15.55-25.38L67.6,43.05S63.27,54.22,51,67.17c0,0,12.5-17.06,13.89-22.45l-4.11,2.56s-11,17.77-14.72,20.77c0,0,12.11-18,12.44-19.83l-4.33,2S51.66,57.44,41,68.33c0,0,9.62-12.55,10.67-16.83l-3.89,1.83A48.94,48.94,0,0,1,35.71,69.64S44.13,58.55,45,55.05L41,57.14S37,65,31,69.64c0,0,7.5-9.59,7.34-10.75l-4.09,1.83s-2.83,7-8.75,9.83c0,0,6-6.5,5.92-8.91L28,63.32s-4.33,6.4-7.25,8.23c0,0,4.42-5.83,4.42-7l-3.75,1.67S18.88,72.89,15,73.8c0,0,3.58-4.25,3.83-7l-2.91.67s-1,5-5.75,6.33c0,0,2.83-3.66,3.16-5.5,0,0-4.08,2.42-10.41.67,0,0,9.58-.75,10.33-3.08,0,0-8.42-1.75-10.33-.59,0,0,8.6-3.53,16.33-2l2.58-.6S11,60.72,8.63,61.47s11.46-3.23,17-.92l2.5-1.16s-6-2.92-14.67-.84c0,0,5.15-4.57,17.33-.75l3.09-1.25s-13.34-2.16-17.09-1.83c0,0,9.92-2.67,19.67.75l3.08-1.3S30.21,49.47,20,51.1A33.71,33.71,0,0,1,42.6,52.5l3.71-1.89s-7.93-4.17-22.38-2.33c0,0,10.18-3.48,25.28,1l3.11-1.55s-7.55-3.84-23.89-3c0,0,11.35-3.71,26.67,1.72l3.17-1.72s-5.78-3.73-24.78-3c0,0,16-3.28,27.55,1.56l2.89-1.45s-9.66-6-28.22-4.27c0,0,13.95-4,30.72,2.83l3-1.72s-6.22-6.23-29.77-3.89c0,0,16.61-4.95,32.5,2l3-1.5S65.54,29.28,43.66,31a54.24,54.24,0,0,1,33.66,2.94S88.54,27.94,89.38,28.39Z"/><path class="cls-1 cls-2" d="M250.12,28.39s-.83,2.51,0,3.45,9.56,4.39,9.56,4.39,7.72,21.65,17.61,26.19c0,0-14.76-20.39-14.59-24.78l3.3,1.57s8.89,19.14,17.55,24.63c0,0-15-20.29-15.65-23.9L272,42.19s4.36,10.51,16.65,22.69c0,0-12.57-16-14-21.12l4.14,2.4s11.06,16.74,14.81,19.56c0,0-12.19-17-12.52-18.67l4.36,1.83s2.57,6.85,13.25,17.1c0,0-9.67-11.82-10.74-15.84l3.92,1.72a46.07,46.07,0,0,0,12.18,15.35s-8.47-10.43-9.3-13.73l3.94,2s4,7.38,10.06,11.77c0,0-7.55-9-7.38-10.12l4.11,1.73s2.85,6.59,8.8,9.25c0,0-6-6.12-6-8.39l3.44,1.58s4.36,6,7.29,7.75c0,0-4.44-5.49-4.44-6.59L318.46,64s2.6,6.28,6.54,7.14c0,0-3.6-4-3.85-6.59l2.93.63a8.32,8.32,0,0,0,5.79,6S327,67.68,326.68,66c0,0,4.11,2.28,10.48.63,0,0-9.64-.7-10.4-2.9,0,0,8.47-1.65,10.4-.55,0,0-8.66-3.33-16.43-1.87l-2.6-.56s10.81-1.88,13.24-1.18-11.53-3-17.1-.86l-2.52-1.1s6-2.74,14.76-.78c0,0-5.18-4.3-17.44-.71L306,54.9s13.41-2,17.19-1.73c0,0-10-2.51-19.79.71l-3.1-1.23s9.39-4.42,19.67-2.89a36.09,36.09,0,0,0-22.75,1.32l-3.73-1.78s8-3.92,22.51-2.2c0,0-10.24-3.27-25.43,1l-3.13-1.47s7.6-3.6,24-2.82c0,0-11.42-3.49-26.84,1.62l-3.18-1.62s5.81-3.5,24.93-2.77c0,0-16.12-3.09-27.73,1.46l-2.9-1.36s9.72-5.64,28.39-4c0,0-14-3.77-30.91,2.66l-3-1.62s6.26-5.85,30-3.66c0,0-16.71-4.65-32.7,1.89L264.38,35s9.72-5.75,31.75-4.13a58.21,58.21,0,0,0-33.88,2.77S251,28,250.12,28.39Z"/></svg>
