<svg id="owl" data-name="Layer 1" xmlns="http://www.w3.org/2000/svg" viewBox="0 0 243.69 396.64"><defs><style>.cls-1{fill:none;stroke:url(#gradient);stroke-miterlimit:10;stroke-width:3;}</style>
    <linearGradient id="gradient" x1="0%" y1="0%" x2="0%" y2="100%">
  <stop offset="0%" stop-color="#00bc9b" />
  <stop offset="100%" stop-color="#5eaefd" />
</linearGradient></defs><path class="cls-1" d="M122.36,59.89c2.44,0,36.33,5.17.33,66.06,0,0-35.11-48-7.55-64C115.14,62,119.92,59.89,122.36,59.89Z"/><path class="cls-2" d="M140.69,69"/><path class="cls-1" d="M121.61,144.17s-39.42-12.36-50-15.77c-12.44-4-36.22-18.78-38.89-29.78,0,0-4.58,1.42-1.08,11.33,0,0-14.42-7.75-12.17-31.83,0,0-4.75-1.75-10.91,8.25,0,0-4.17-16.58,6-28.58,0,0-13.67-1.5-14-7.5,0,0,13.16-.67,20.16-16.34S35.36,1.62,39,.62,72,6,84.69,26.29s18.48,35,19.89,40.66c0,0,14.45-22.5,36.11-.41,0,0,9.34-35.25,20.45-42.81s26-22.2,45.11-23.21c0,0,20.44,55.88,36.44,49.88,0,0-4.22,8.66-12.44,5.55,0,0,8.67,14.67,6.89,29.56,0,0-9.34-10-12-8.45,0,0,4,24.67-9.11,33.56,0,0,.89-13.56-2.67-12.89,0,0-5.56,34.67-86,45.78,0,0,55.33-5.34,65.78-17.56,0,0,29.11,24,32.44,44.45s7.78,56-10.44,76.66S191.8,272,188.92,272.17s-8.23,5-9.12,3.63,9.12-10.29,3.78-33.4c0,0,32.67-54.89,8-101.78,0,0,18.67,48.22-10.44,100.67,0,0-6.89-6-12.89.66,0,0-8.45-8-15.78-.22,0,0-10.89-7.78-18.22,5.56l-25.78.22s-6.44-14.45-17.11-4.22c0,0-7.11-9.34-15.78-.89,0,0-12.22-6.45-16,6.66,0,0-30.22-59.11-7.33-105.77,0,0-27.56,47.11,4,105.55l2.67,4.22s-2.09,13.34,9.77,19.84c6.51,3.57-17.33-.08-17.33-.08S10,250.62,16.25,192.4s33.33-66.23,36.22-67.56C52.47,124.84,54.28,128.17,121.61,144.17Z"/><path class="cls-1" d="M64.69,246.84s-7.77,17.56,6.89,25.78c0,0,8,4.89,4-25.78C75.58,246.84,69.36,240.17,64.69,246.84Z"/><path class="cls-1" d="M78.69,246s4.45-8.89,10.23,0,0,25.78,0,25.78S76.47,280.84,78.69,246Z"/><path class="cls-1" d="M93.36,246.62s5.11-10.89,12.22,1.11c0,0,3.78,9.33-1.11,20.89s-11.11-1.33-11.11-1.33S91.58,251.29,93.36,246.62Z"/><path class="cls-1" d="M137.36,249.06S143.8,234,150.92,246c0,0,3.33,14,1.11,21.34s-14,6.88-14.67-1.34S134.93,253.23,137.36,249.06Z"/><path class="cls-1" d="M154.25,245.73s5.33-11.11,13.33,0c0,0,4.45,20,0,24.22s-12.66,2.89-13.33,0S156.69,254.17,154.25,245.73Z"/><path class="cls-1" d="M169.56,245.06s7.54-8.37,11.36,1.34-3.12,26.07-3.12,26.07-6.88,3.93-6.66-4.52S171.31,247.06,169.56,245.06Z"/><path class="cls-1" d="M87.14,275.3s5.31-1.35,5.43-3.79c0,0,16.57,16.89,17.46-20h23.55s-5.33,22,9.78,23.79c0,0,8,.35,9.43-2.5,0,0,4.13,2.73,5.46,2.5s43.85,66.21,23.81,98c0,0-15.14,4.22-17.59-10s-2.61-40.46-19.11-82.89c0,0,21.34,88.68,12.44,104,0,0-9.36,9.77-13.35-2.23S140.69,302,134.69,286c0,0,.86,89.58-2.69,100.49-3.64,11.18-15.75,16.4-21.31-5.15s-2.22-87.56,2-95.78c0,0-11.55,54.22-6.89,90,0,0-3.47,33.78-20.84-.22s14.81-93.78,14.81-93.78S72,322.4,76.7,361.29s-17.56,7.33-17.56,7.33S44.92,325.31,87.14,275.3Z"/><path class="cls-1" d="M156.25,49.06s.89,21.11,14.67,13.56,4.66-23.11-5.78-21.11c0,0,2.66,6-1.78,8.44S156.25,49.06,156.25,49.06Z"/><path class="cls-1" d="M160,28.62s31.55-2.77,28.44,24.17-25.78,24.72-25.78,24.72S148.25,74.62,145.14,62C145.14,62,153.58,32.17,160,28.62Z"/><path class="cls-1" d="M71.58,41.33s5.34,3.07,2.67,8-9.33,1.55-9.33,1.55S68,72,86,60c0,0,8-8-2.89-16.47A13.15,13.15,0,0,0,71.58,41.33Z"/><path class="cls-1" d="M81.23,28.94s-20.16-2-24.79,14S57.08,72.34,74,76.78s24.9-17.05,24.9-17.05S84.72,29,81.23,28.94Z"/><path class="cls-1" d="M45,6.29S10,63,50,102.62c0,0,26.66,31,52-11.67,0,0-1-9.46,0-13.4-6,14.64-23.6,12.07-23.6,12.07C13.36,78.84,60,13,60,13"/><path class="cls-1" d="M198.69,6.29s24.22,29.07,5.34,81S140.69,90,140.69,90c2.11-2.89.89-14.33.89-14.33s21.85,15.57,40.48,8.67,24.51-45.23,17.63-57.67-9.13-14-15.33-14.67"/><path class="cls-1" d="M47.36,139.62s-45.33,59.53,0,117.1"/><path class="cls-1" d="M197.36,139.62s37,50.84-1.33,115.67"/><path class="cls-1" d="M66.44,146.62S60,161,69.67,163.29c0,0-4.84,18.33,8.76,7.33,0,0,4.93,16.67,10.43-2.67"/><path class="cls-1" d="M98.93,153s-2.57,22.35,11.43,9c0,0,5.5,13.69,11.25-2.38"/><path class="cls-1" d="M140.69,173s8.59,17.67,13.46,0c0,0,12.88,13.55,10.88-5.56,0,0,14.76,2.56,2.05-17.44"/><path class="cls-1" d="M102,189.62s3.66,28.67,14.66,13c0,0,7,16.33,13.34,0,0,0,6.33,11.67,12.66-7.67"/><path class="cls-1" d="M54.84,156S45,194.62,58.36,194c0,0,3.55-4.66,4.27-7.33,0,0,6.53,26,14,29S85,209.88,85,209.88,99.69,230.62,102,229.62s5-8,5-8,13.38,16,18,11.67,11.09-13,11.09-13,3.46,14.66,9,8.33S156.47,208,156.47,208s4,15.67,10.44,8.67,16.19-21.33,15.15-27c0,0,6,12.67,9,0s.32-31.67-2.34-36.67"/><path class="cls-1" d="M54.84,206s-1.53,12,2,5.67S58.32,203.29,54.84,206Z"/><path class="cls-1" d="M58.67,223.29s4.13-10.67,6.25,0-6.25,4-6.25,4Z"/><path class="cls-1" d="M71.36,229.34s3.47-7.61,7.07,0-3.54,8.28-3.54,8.28S69.69,234.07,71.36,229.34Z"/><path class="cls-1" d="M156.47,229.34s11.76-10.71,10.44,0-9.22,4.69-9.22,4.69Z"/><path class="cls-1" d="M175.81,215s5.29-7.66,6.25,0-6.25,7-6.25,7S171.61,218.35,175.81,215Z"/><path class="cls-1" d="M187.42,202.29s2.8-9,4.93-2.54-3.66,6.87-3.66,6.87S186.66,204.25,187.42,202.29Z"/><path class="cls-1" d="M107,234s2.71-4.59,5.38,0-2.18,3.59-2.18,3.59S105.92,237.44,107,234Z"/><path class="cls-1" d="M127.36,242.09s3.67,2.2,7-2.8-3.5-4.44-3.5-4.44S124.68,236.86,127.36,242.09Z"/></svg>