<svg id="seahorse" data-name="Layer 1" xmlns="http://www.w3.org/2000/svg" viewBox="0 0 347.95 672.59"><defs><style>.cls-1{fill:none;stroke:url(#gradient);stroke-miterlimit:10;stroke-width:6;} .belly{fill:url(#gradient);}</style>
    <linearGradient id="gradient" x1="0%" y1="0%" x2="0%" y2="100%">
  <stop offset="0%" stop-color="yellow" />
  <stop offset="60%" stop-color="green" />
  <stop offset="100%" stop-color="magenta" />
</linearGradient>
</defs><path class="cls-1" d="M7274.72,7027.17s-15.55-27.11-24.44-30.23-6.67-22.22,24.44-5.77,23.56,19.55,23.56,19.55l7.55-3.11s4-31.11-4-32.89-.89-31.55,31.11,9.34c0,0,7.56,9.33,10.23,24.88,0,0,12.89,2.23,15.11,8.67,0,0,3.78-14.67,2.22-16.67s1.78-14.44,13.33,3.56,9.56,39.11,1.78,55.78-6.67,13.55-6.67,13.55,5.34,2.89,5.56,5.34,27.11-28.45,26.44-34,9.12-17.11,9.56.66-16.22,38.89-24.44,45.34c0,0,4.44,3.33,4,5.55,0,0,16.44-22.22,29.77-22.66s12,4,12,4,1.34,8.66-7.33,12-23.33,18.44-23.33,18.44,5.11,5.56,4.89,6.67,21.55-22.45,39.33,2.22-6.67,10.44-6.67,10.44-13.33-8.28-25.78,4.08c0,0,4.45,9,2.89,10.81,0,0,23.11-19.33,38.89,11.11s-11.11,10.23-11.11,10.23-7.55-11.34-25.11,4.44c0,0,.22,7.56-1.33,8.89s33.77-10.67,34,23.55-18.67,12.45-18.67,12.45-4.89-14-24.44-8.67c0,0-4.67,10.67-7.34,12.89,0,0,33.34-10.89,36,27.78,0,0,3.11,18-21.78,12.67s-26.22-10.45-26.22-10.45-5.55,7.53-6.22,11.43c0,0,23.33-8.1,32.89,19.24,0,0,5.11,20.66-26,12.66,0,0-14.67-2.66-18.45-9.11,0,0-5.55,7.78-3.77,12.67,0,0,31.33-5.11,36.66,23.33,0,0,6.89,22.67-19.33,9.11,0,0-11.78-9.55-17.78-7.11,0,0-2.05,10.34-1.05,13.17,0,0,25.16,0,23,13.5s-16.34,10.5-16.34,10.5-5.33-1.17-7-.83c0,0-1,9.66.17,9.66s22.67-3.16,24.33,10.34-22.33,14.16-22.33,14.16,4.17,16.34,5.33,16.34,22.67-8.5,26,2.66-12.16,19-12.16,19l7,13.84s16-1.34,13.66,13.33l10.34,13.5s-9.84,4.67-4.17,12.17,10.83,8.33,12.33,4.33c0,0,5.67,6.17,6.17,11.83,0,0-12.5,1-8.5,8.34s7,12.16,9.5,6.33c0,0,2.83,12,1.17,14.33,0,0-17,11-1.17,22.17,0,0,.17,15.83-1.17,17,0,0-11.83-5.5-12.33,1s4.67,10.33,8.67,9.67c0,0-5.84,23.66-32.84,39.83s-38,20.83-72.5,16.83c0,0,5-10-5.5-12.83s-14-.33-17.16,3c0,0-13.84-7.5-13.34-8.33s9.84-8,6-11.84-12.16-4.5-15.83-.33c0,0-20.83-15-19.33-42.33s1.83-29.84,10.16-41.5c0,0,5.34,6.83,9,2.33s1-11.17-1.5-11c0,0,16.5-21.83,42.67-21s35.33,4.17,43.83,15.17c0,0-7.16,4.5-1.5,7s5.84,3,6.84.33c0,0,7.33,12.33,5.83,31.33s-10,33.34-37,38.17-39.67-22.17-36.17-37.83,13.34-23.84,29.17-21.34,25.83,13.67,19.17,29.5-25.5,4.67-25.5,4.67,26.83,1,19.33-16.5-28-10.5-29.5,1.5-3.83,26.33,12.5,28.5,40-.17,36.17-29.83-11.34-30.67-32.34-34.84-43.83,3.5-47.5,34.67-.66,41.17,23.5,61.33,64.84,11.67,83.5-12.66,35.67-48,14.34-92-51.17-76.84-51.17-76.84-22-25.66-18.83-68.33,38.5-119.83,57.61-138.94,11.55-78.23,1.33-86.23-21.8-12-38.9,9.34c0,0-5.1-25.34-12.65-22.67s-35.56,15.56-76,12.44-84,26.67-94.23,60-27.55,14.55-27.55-1.83-21.78-28.39-21.78-28.39-28.44-11.55,23.56-20.44,88.88-49.78,88.88-49.78S7259.61,7030.28,7274.72,7027.17Z" transform="translate(-7112.24 -6962.09)"/><path class="cls-1 belly" d="M7356.28,7137.83s26-28.44,37.33,3.34-6.89,60.89-6.89,60.89-22.22,27.11-38.66,69.55-20.45,64.67-20.23,73.56c0,0-48.89-43.34-36.44-93.11S7356.28,7137.83,7356.28,7137.83Z" transform="translate(-7112.24 -6962.09)"/><path class="cls-1 belly" d="M7146.06,7170.28s5.55,22.22,12.66,6c0,0,9.17,17.93-1.33,19.78S7144.94,7180.28,7146.06,7170.28Z" transform="translate(-7112.24 -6962.09)"/><path class="cls-1" d="M7309.17,7050.5s3.55,6.44-2.23,4.22c0,0,.67,13.78,8,4.45S7314.5,7050.5,7309.17,7050.5Z" transform="translate(-7112.24 -6962.09)"/><path class="cls-1" d="M7302.28,7038.06s-24.8,4-16.07,27.11,30.73,17.55,30.73,17.55,26-10,13.34-30S7302.28,7038.06,7302.28,7038.06Z" transform="translate(-7112.24 -6962.09)"/><path class="cls-1" d="M7341.83,7019.83s60,12,1.51,80C7343.34,7099.83,7373.83,7043.17,7341.83,7019.83Z" transform="translate(-7112.24 -6962.09)"/><path class="cls-1" d="M7133.17,7144.83s33,3.34,42.66-4.33,79.67-42.67,80.67-47.67-13-28.33,13.67-53.66" transform="translate(-7112.24 -6962.09)"/></svg>